<mxfile host="app.diagrams.net" modified="2021-10-21T03:37:52.496Z" agent="5.0 (Macintosh; Intel Mac OS X 10_15_6) AppleWebKit/537.36 (KHTML, like Gecko) Chrome/94.0.4606.81 Safari/537.36" etag="aJmDyZ_wXOnkEImc0fzx" version="15.3.7" type="github">
  <diagram id="0inbW-KyjCVtwk-rCgZb" name="Page-1">
    <mxGraphModel dx="2893" dy="1074" grid="1" gridSize="10" guides="1" tooltips="1" connect="1" arrows="1" fold="1" page="1" pageScale="1" pageWidth="827" pageHeight="1169" math="0" shadow="0">
      <root>
        <mxCell id="0" />
        <mxCell id="1" parent="0" />
        <mxCell id="1Qq6kkW1Uyhg24G6HAr7-7" value="item 【hash】" style="swimlane;childLayout=stackLayout;resizeParent=1;resizeParentMax=0;horizontal=1;startSize=20;horizontalStack=0;verticalAlign=top;strokeWidth=3;fillColor=#fff2cc;strokeColor=#d6b656;" vertex="1" parent="1">
          <mxGeometry x="400" y="560" width="350" height="380" as="geometry" />
        </mxCell>
        <mxCell id="1Qq6kkW1Uyhg24G6HAr7-8" value="itemid1" style="swimlane;startSize=20;horizontal=0;strokeWidth=3;fillColor=#fff2cc;strokeColor=#d6b656;" vertex="1" parent="1Qq6kkW1Uyhg24G6HAr7-7">
          <mxGeometry y="20" width="350" height="120" as="geometry" />
        </mxCell>
        <mxCell id="1Qq6kkW1Uyhg24G6HAr7-23" value="data" style="shape=datastore;whiteSpace=wrap;html=1;verticalAlign=top;strokeWidth=3;fillColor=#fff2cc;strokeColor=#d6b656;" vertex="1" parent="1Qq6kkW1Uyhg24G6HAr7-8">
          <mxGeometry x="145" y="30" width="60" height="60" as="geometry" />
        </mxCell>
        <mxCell id="1Qq6kkW1Uyhg24G6HAr7-9" value="itemid2" style="swimlane;startSize=20;horizontal=0;strokeWidth=3;fillColor=#fff2cc;strokeColor=#d6b656;" vertex="1" parent="1Qq6kkW1Uyhg24G6HAr7-7">
          <mxGeometry y="140" width="350" height="120" as="geometry" />
        </mxCell>
        <mxCell id="1Qq6kkW1Uyhg24G6HAr7-24" value="data" style="shape=datastore;whiteSpace=wrap;html=1;verticalAlign=top;strokeWidth=3;fillColor=#fff2cc;strokeColor=#d6b656;" vertex="1" parent="1Qq6kkW1Uyhg24G6HAr7-9">
          <mxGeometry x="145" y="30" width="60" height="60" as="geometry" />
        </mxCell>
        <mxCell id="1Qq6kkW1Uyhg24G6HAr7-10" value="itemid3" style="swimlane;startSize=20;horizontal=0;strokeWidth=3;fillColor=#fff2cc;strokeColor=#d6b656;" vertex="1" parent="1Qq6kkW1Uyhg24G6HAr7-7">
          <mxGeometry y="260" width="350" height="120" as="geometry" />
        </mxCell>
        <mxCell id="1Qq6kkW1Uyhg24G6HAr7-25" value="data" style="shape=datastore;whiteSpace=wrap;html=1;verticalAlign=top;strokeWidth=3;fillColor=#fff2cc;strokeColor=#d6b656;" vertex="1" parent="1Qq6kkW1Uyhg24G6HAr7-10">
          <mxGeometry x="145" y="30" width="60" height="60" as="geometry" />
        </mxCell>
        <mxCell id="1Qq6kkW1Uyhg24G6HAr7-54" style="edgeStyle=orthogonalEdgeStyle;rounded=0;orthogonalLoop=1;jettySize=auto;html=1;entryX=0;entryY=0.5;entryDx=0;entryDy=0;fontColor=#FEFFD9;strokeWidth=3;fillColor=#fff2cc;strokeColor=#d6b656;" edge="1" parent="1" source="1Qq6kkW1Uyhg24G6HAr7-26" target="1Qq6kkW1Uyhg24G6HAr7-8">
          <mxGeometry relative="1" as="geometry">
            <Array as="points">
              <mxPoint x="320" y="680" />
              <mxPoint x="320" y="640" />
            </Array>
          </mxGeometry>
        </mxCell>
        <mxCell id="1Qq6kkW1Uyhg24G6HAr7-55" style="edgeStyle=orthogonalEdgeStyle;rounded=0;orthogonalLoop=1;jettySize=auto;html=1;entryX=0;entryY=0.75;entryDx=0;entryDy=0;fontColor=#FEFFD9;strokeWidth=3;fillColor=#fff2cc;strokeColor=#d6b656;" edge="1" parent="1" source="1Qq6kkW1Uyhg24G6HAr7-33" target="1Qq6kkW1Uyhg24G6HAr7-9">
          <mxGeometry relative="1" as="geometry">
            <Array as="points">
              <mxPoint x="320" y="740" />
              <mxPoint x="320" y="790" />
            </Array>
          </mxGeometry>
        </mxCell>
        <mxCell id="1Qq6kkW1Uyhg24G6HAr7-26" value="pageitem 【zset】" style="shape=table;startSize=30;container=1;collapsible=1;childLayout=tableLayout;fixedRows=1;rowLines=0;fontStyle=1;align=center;resizeLast=1;strokeWidth=3;fillColor=#fff2cc;strokeColor=#d6b656;" vertex="1" parent="1">
          <mxGeometry x="10" y="620" width="230" height="150" as="geometry" />
        </mxCell>
        <mxCell id="1Qq6kkW1Uyhg24G6HAr7-27" value="" style="shape=partialRectangle;collapsible=0;dropTarget=0;pointerEvents=0;fillColor=#fff2cc;top=0;left=0;bottom=0;right=0;points=[[0,0.5],[1,0.5]];portConstraint=eastwest;strokeWidth=3;strokeColor=#d6b656;" vertex="1" parent="1Qq6kkW1Uyhg24G6HAr7-26">
          <mxGeometry y="30" width="230" height="30" as="geometry" />
        </mxCell>
        <mxCell id="1Qq6kkW1Uyhg24G6HAr7-28" value="updatetime1" style="shape=partialRectangle;connectable=0;fillColor=#fff2cc;top=0;left=0;bottom=0;right=0;fontStyle=1;overflow=hidden;strokeWidth=3;strokeColor=#d6b656;" vertex="1" parent="1Qq6kkW1Uyhg24G6HAr7-27">
          <mxGeometry width="90" height="30" as="geometry">
            <mxRectangle width="90" height="30" as="alternateBounds" />
          </mxGeometry>
        </mxCell>
        <mxCell id="1Qq6kkW1Uyhg24G6HAr7-29" value="itemid1" style="shape=partialRectangle;connectable=0;fillColor=#fff2cc;top=0;left=0;bottom=0;right=0;align=left;spacingLeft=6;fontStyle=5;overflow=hidden;strokeWidth=3;strokeColor=#d6b656;" vertex="1" parent="1Qq6kkW1Uyhg24G6HAr7-27">
          <mxGeometry x="90" width="140" height="30" as="geometry">
            <mxRectangle width="140" height="30" as="alternateBounds" />
          </mxGeometry>
        </mxCell>
        <mxCell id="1Qq6kkW1Uyhg24G6HAr7-30" value="" style="shape=partialRectangle;collapsible=0;dropTarget=0;pointerEvents=0;fillColor=#fff2cc;top=0;left=0;bottom=1;right=0;points=[[0,0.5],[1,0.5]];portConstraint=eastwest;strokeWidth=3;strokeColor=#d6b656;" vertex="1" parent="1Qq6kkW1Uyhg24G6HAr7-26">
          <mxGeometry y="60" width="230" height="30" as="geometry" />
        </mxCell>
        <mxCell id="1Qq6kkW1Uyhg24G6HAr7-31" value="" style="shape=partialRectangle;connectable=0;fillColor=#fff2cc;top=0;left=0;bottom=0;right=0;fontStyle=1;overflow=hidden;strokeWidth=3;strokeColor=#d6b656;" vertex="1" parent="1Qq6kkW1Uyhg24G6HAr7-30">
          <mxGeometry width="90" height="30" as="geometry">
            <mxRectangle width="90" height="30" as="alternateBounds" />
          </mxGeometry>
        </mxCell>
        <mxCell id="1Qq6kkW1Uyhg24G6HAr7-32" value="" style="shape=partialRectangle;connectable=0;fillColor=#fff2cc;top=0;left=0;bottom=0;right=0;align=left;spacingLeft=6;fontStyle=5;overflow=hidden;strokeWidth=3;strokeColor=#d6b656;" vertex="1" parent="1Qq6kkW1Uyhg24G6HAr7-30">
          <mxGeometry x="90" width="140" height="30" as="geometry">
            <mxRectangle width="140" height="30" as="alternateBounds" />
          </mxGeometry>
        </mxCell>
        <mxCell id="1Qq6kkW1Uyhg24G6HAr7-33" value="" style="shape=partialRectangle;collapsible=0;dropTarget=0;pointerEvents=0;fillColor=#fff2cc;top=0;left=0;bottom=0;right=0;points=[[0,0.5],[1,0.5]];portConstraint=eastwest;strokeWidth=3;strokeColor=#d6b656;" vertex="1" parent="1Qq6kkW1Uyhg24G6HAr7-26">
          <mxGeometry y="90" width="230" height="30" as="geometry" />
        </mxCell>
        <mxCell id="1Qq6kkW1Uyhg24G6HAr7-34" value="updatetime2" style="shape=partialRectangle;connectable=0;fillColor=#fff2cc;top=0;left=0;bottom=0;right=0;editable=1;overflow=hidden;strokeWidth=3;strokeColor=#d6b656;" vertex="1" parent="1Qq6kkW1Uyhg24G6HAr7-33">
          <mxGeometry width="90" height="30" as="geometry">
            <mxRectangle width="90" height="30" as="alternateBounds" />
          </mxGeometry>
        </mxCell>
        <mxCell id="1Qq6kkW1Uyhg24G6HAr7-35" value="itemid2" style="shape=partialRectangle;connectable=0;fillColor=#fff2cc;top=0;left=0;bottom=0;right=0;align=left;spacingLeft=6;overflow=hidden;strokeWidth=3;strokeColor=#d6b656;" vertex="1" parent="1Qq6kkW1Uyhg24G6HAr7-33">
          <mxGeometry x="90" width="140" height="30" as="geometry">
            <mxRectangle width="140" height="30" as="alternateBounds" />
          </mxGeometry>
        </mxCell>
        <mxCell id="1Qq6kkW1Uyhg24G6HAr7-36" value="" style="shape=partialRectangle;collapsible=0;dropTarget=0;pointerEvents=0;fillColor=#fff2cc;top=0;left=0;bottom=0;right=0;points=[[0,0.5],[1,0.5]];portConstraint=eastwest;strokeWidth=3;strokeColor=#d6b656;" vertex="1" parent="1Qq6kkW1Uyhg24G6HAr7-26">
          <mxGeometry y="120" width="230" height="30" as="geometry" />
        </mxCell>
        <mxCell id="1Qq6kkW1Uyhg24G6HAr7-37" value="" style="shape=partialRectangle;connectable=0;fillColor=#fff2cc;top=0;left=0;bottom=0;right=0;editable=1;overflow=hidden;strokeWidth=3;strokeColor=#d6b656;" vertex="1" parent="1Qq6kkW1Uyhg24G6HAr7-36">
          <mxGeometry width="90" height="30" as="geometry">
            <mxRectangle width="90" height="30" as="alternateBounds" />
          </mxGeometry>
        </mxCell>
        <mxCell id="1Qq6kkW1Uyhg24G6HAr7-38" value="" style="shape=partialRectangle;connectable=0;fillColor=#fff2cc;top=0;left=0;bottom=0;right=0;align=left;spacingLeft=6;overflow=hidden;strokeWidth=3;strokeColor=#d6b656;" vertex="1" parent="1Qq6kkW1Uyhg24G6HAr7-36">
          <mxGeometry x="90" width="140" height="30" as="geometry">
            <mxRectangle width="140" height="30" as="alternateBounds" />
          </mxGeometry>
        </mxCell>
        <mxCell id="1Qq6kkW1Uyhg24G6HAr7-39" value="past due pageitem 【zset】" style="shape=table;startSize=30;container=1;collapsible=1;childLayout=tableLayout;fixedRows=1;rowLines=0;fontStyle=1;align=center;resizeLast=1;strokeWidth=3;fillColor=#fff2cc;strokeColor=#d6b656;" vertex="1" parent="1">
          <mxGeometry x="10" y="870" width="230" height="150" as="geometry" />
        </mxCell>
        <mxCell id="1Qq6kkW1Uyhg24G6HAr7-40" value="" style="shape=partialRectangle;collapsible=0;dropTarget=0;pointerEvents=0;fillColor=#fff2cc;top=0;left=0;bottom=0;right=0;points=[[0,0.5],[1,0.5]];portConstraint=eastwest;strokeWidth=3;strokeColor=#d6b656;" vertex="1" parent="1Qq6kkW1Uyhg24G6HAr7-39">
          <mxGeometry y="30" width="230" height="30" as="geometry" />
        </mxCell>
        <mxCell id="1Qq6kkW1Uyhg24G6HAr7-41" value="expireAt3" style="shape=partialRectangle;connectable=0;fillColor=#fff2cc;top=0;left=0;bottom=0;right=0;fontStyle=1;overflow=hidden;strokeWidth=3;strokeColor=#d6b656;" vertex="1" parent="1Qq6kkW1Uyhg24G6HAr7-40">
          <mxGeometry width="90" height="30" as="geometry">
            <mxRectangle width="90" height="30" as="alternateBounds" />
          </mxGeometry>
        </mxCell>
        <mxCell id="1Qq6kkW1Uyhg24G6HAr7-42" value="itemid3" style="shape=partialRectangle;connectable=0;fillColor=#fff2cc;top=0;left=0;bottom=0;right=0;align=left;spacingLeft=6;fontStyle=5;overflow=hidden;strokeWidth=3;strokeColor=#d6b656;" vertex="1" parent="1Qq6kkW1Uyhg24G6HAr7-40">
          <mxGeometry x="90" width="140" height="30" as="geometry">
            <mxRectangle width="140" height="30" as="alternateBounds" />
          </mxGeometry>
        </mxCell>
        <mxCell id="1Qq6kkW1Uyhg24G6HAr7-43" value="" style="shape=partialRectangle;collapsible=0;dropTarget=0;pointerEvents=0;fillColor=#fff2cc;top=0;left=0;bottom=1;right=0;points=[[0,0.5],[1,0.5]];portConstraint=eastwest;strokeWidth=3;strokeColor=#d6b656;" vertex="1" parent="1Qq6kkW1Uyhg24G6HAr7-39">
          <mxGeometry y="60" width="230" height="30" as="geometry" />
        </mxCell>
        <mxCell id="1Qq6kkW1Uyhg24G6HAr7-44" value="" style="shape=partialRectangle;connectable=0;fillColor=#fff2cc;top=0;left=0;bottom=0;right=0;fontStyle=1;overflow=hidden;strokeWidth=3;strokeColor=#d6b656;" vertex="1" parent="1Qq6kkW1Uyhg24G6HAr7-43">
          <mxGeometry width="90" height="30" as="geometry">
            <mxRectangle width="90" height="30" as="alternateBounds" />
          </mxGeometry>
        </mxCell>
        <mxCell id="1Qq6kkW1Uyhg24G6HAr7-45" value="" style="shape=partialRectangle;connectable=0;fillColor=#fff2cc;top=0;left=0;bottom=0;right=0;align=left;spacingLeft=6;fontStyle=5;overflow=hidden;strokeWidth=3;strokeColor=#d6b656;" vertex="1" parent="1Qq6kkW1Uyhg24G6HAr7-43">
          <mxGeometry x="90" width="140" height="30" as="geometry">
            <mxRectangle width="140" height="30" as="alternateBounds" />
          </mxGeometry>
        </mxCell>
        <mxCell id="1Qq6kkW1Uyhg24G6HAr7-46" value="" style="shape=partialRectangle;collapsible=0;dropTarget=0;pointerEvents=0;fillColor=#fff2cc;top=0;left=0;bottom=0;right=0;points=[[0,0.5],[1,0.5]];portConstraint=eastwest;strokeWidth=3;strokeColor=#d6b656;" vertex="1" parent="1Qq6kkW1Uyhg24G6HAr7-39">
          <mxGeometry y="90" width="230" height="30" as="geometry" />
        </mxCell>
        <mxCell id="1Qq6kkW1Uyhg24G6HAr7-47" value="expireAt4" style="shape=partialRectangle;connectable=0;fillColor=#fff2cc;top=0;left=0;bottom=0;right=0;editable=1;overflow=hidden;strokeWidth=3;strokeColor=#d6b656;" vertex="1" parent="1Qq6kkW1Uyhg24G6HAr7-46">
          <mxGeometry width="90" height="30" as="geometry">
            <mxRectangle width="90" height="30" as="alternateBounds" />
          </mxGeometry>
        </mxCell>
        <mxCell id="1Qq6kkW1Uyhg24G6HAr7-48" value="itemid4" style="shape=partialRectangle;connectable=0;fillColor=#fff2cc;top=0;left=0;bottom=0;right=0;align=left;spacingLeft=6;overflow=hidden;strokeWidth=3;strokeColor=#d6b656;" vertex="1" parent="1Qq6kkW1Uyhg24G6HAr7-46">
          <mxGeometry x="90" width="140" height="30" as="geometry">
            <mxRectangle width="140" height="30" as="alternateBounds" />
          </mxGeometry>
        </mxCell>
        <mxCell id="1Qq6kkW1Uyhg24G6HAr7-49" value="" style="shape=partialRectangle;collapsible=0;dropTarget=0;pointerEvents=0;fillColor=#fff2cc;top=0;left=0;bottom=0;right=0;points=[[0,0.5],[1,0.5]];portConstraint=eastwest;strokeWidth=3;strokeColor=#d6b656;" vertex="1" parent="1Qq6kkW1Uyhg24G6HAr7-39">
          <mxGeometry y="120" width="230" height="30" as="geometry" />
        </mxCell>
        <mxCell id="1Qq6kkW1Uyhg24G6HAr7-50" value="" style="shape=partialRectangle;connectable=0;fillColor=#fff2cc;top=0;left=0;bottom=0;right=0;editable=1;overflow=hidden;strokeWidth=3;strokeColor=#d6b656;" vertex="1" parent="1Qq6kkW1Uyhg24G6HAr7-49">
          <mxGeometry width="90" height="30" as="geometry">
            <mxRectangle width="90" height="30" as="alternateBounds" />
          </mxGeometry>
        </mxCell>
        <mxCell id="1Qq6kkW1Uyhg24G6HAr7-51" value="" style="shape=partialRectangle;connectable=0;fillColor=#fff2cc;top=0;left=0;bottom=0;right=0;align=left;spacingLeft=6;overflow=hidden;strokeWidth=3;strokeColor=#d6b656;" vertex="1" parent="1Qq6kkW1Uyhg24G6HAr7-49">
          <mxGeometry x="90" width="140" height="30" as="geometry">
            <mxRectangle width="140" height="30" as="alternateBounds" />
          </mxGeometry>
        </mxCell>
        <mxCell id="1Qq6kkW1Uyhg24G6HAr7-52" value="itemid4" style="swimlane;startSize=20;horizontal=0;strokeWidth=3;fillColor=#fff2cc;strokeColor=#d6b656;" vertex="1" parent="1">
          <mxGeometry x="400" y="940" width="350" height="120" as="geometry" />
        </mxCell>
        <mxCell id="1Qq6kkW1Uyhg24G6HAr7-53" value="data" style="shape=datastore;whiteSpace=wrap;html=1;verticalAlign=top;strokeWidth=3;fillColor=#fff2cc;strokeColor=#d6b656;" vertex="1" parent="1Qq6kkW1Uyhg24G6HAr7-52">
          <mxGeometry x="145" y="30" width="60" height="60" as="geometry" />
        </mxCell>
        <mxCell id="1Qq6kkW1Uyhg24G6HAr7-58" style="edgeStyle=orthogonalEdgeStyle;rounded=0;orthogonalLoop=1;jettySize=auto;html=1;entryX=0;entryY=0.5;entryDx=0;entryDy=0;fontColor=#FEFFD9;strokeWidth=3;fillColor=#fff2cc;strokeColor=#d6b656;" edge="1" parent="1">
          <mxGeometry relative="1" as="geometry">
            <mxPoint x="240" y="930" as="sourcePoint" />
            <mxPoint x="400" y="890" as="targetPoint" />
            <Array as="points">
              <mxPoint x="320" y="930" />
              <mxPoint x="320" y="890" />
            </Array>
          </mxGeometry>
        </mxCell>
        <mxCell id="1Qq6kkW1Uyhg24G6HAr7-60" style="edgeStyle=orthogonalEdgeStyle;rounded=0;orthogonalLoop=1;jettySize=auto;html=1;entryX=0;entryY=0.75;entryDx=0;entryDy=0;fontColor=#FEFFD9;strokeWidth=3;fillColor=#fff2cc;strokeColor=#d6b656;" edge="1" parent="1">
          <mxGeometry relative="1" as="geometry">
            <mxPoint x="240" y="980" as="sourcePoint" />
            <mxPoint x="400" y="1030" as="targetPoint" />
            <Array as="points">
              <mxPoint x="320" y="980" />
              <mxPoint x="320" y="1030" />
            </Array>
          </mxGeometry>
        </mxCell>
        <mxCell id="1Qq6kkW1Uyhg24G6HAr7-65" style="edgeStyle=orthogonalEdgeStyle;rounded=0;orthogonalLoop=1;jettySize=auto;html=1;entryX=0.5;entryY=0;entryDx=0;entryDy=0;fontColor=#000000;strokeColor=#000000;strokeWidth=1;curved=1;" edge="1" parent="1" source="1Qq6kkW1Uyhg24G6HAr7-61" target="1Qq6kkW1Uyhg24G6HAr7-63">
          <mxGeometry relative="1" as="geometry" />
        </mxCell>
        <mxCell id="1Qq6kkW1Uyhg24G6HAr7-66" value="取出" style="edgeLabel;html=1;align=center;verticalAlign=middle;resizable=0;points=[];fontColor=#000000;" vertex="1" connectable="0" parent="1Qq6kkW1Uyhg24G6HAr7-65">
          <mxGeometry x="0.2667" y="20" relative="1" as="geometry">
            <mxPoint as="offset" />
          </mxGeometry>
        </mxCell>
        <mxCell id="1Qq6kkW1Uyhg24G6HAr7-61" value="zset range" style="rounded=0;whiteSpace=wrap;html=1;fontColor=#000000;strokeColor=#E6E6E6;strokeWidth=3;verticalAlign=middle;align=center;" vertex="1" parent="1">
          <mxGeometry x="-430" y="610" width="150" height="80" as="geometry" />
        </mxCell>
        <mxCell id="1Qq6kkW1Uyhg24G6HAr7-68" style="edgeStyle=orthogonalEdgeStyle;curved=1;rounded=0;orthogonalLoop=1;jettySize=auto;html=1;fontColor=#000000;strokeColor=#000000;strokeWidth=1;entryX=0;entryY=0.5;entryDx=0;entryDy=0;exitX=0.5;exitY=1;exitDx=0;exitDy=0;" edge="1" parent="1" source="1Qq6kkW1Uyhg24G6HAr7-63" target="1Qq6kkW1Uyhg24G6HAr7-67">
          <mxGeometry relative="1" as="geometry">
            <mxPoint x="-487" y="855" as="targetPoint" />
          </mxGeometry>
        </mxCell>
        <mxCell id="1Qq6kkW1Uyhg24G6HAr7-63" value="道具id列表" style="ellipse;whiteSpace=wrap;html=1;fontColor=#000000;strokeColor=#E6E6E6;strokeWidth=3;align=center;verticalAlign=middle;" vertex="1" parent="1">
          <mxGeometry x="-577" y="715" width="120" height="80" as="geometry" />
        </mxCell>
        <mxCell id="1Qq6kkW1Uyhg24G6HAr7-64" value="" style="curved=1;endArrow=classic;html=1;fontColor=#000000;strokeColor=#FFE599;strokeWidth=3;" edge="1" parent="1">
          <mxGeometry width="50" height="50" relative="1" as="geometry">
            <mxPoint x="390" y="850" as="sourcePoint" />
            <mxPoint x="440" y="800" as="targetPoint" />
            <Array as="points">
              <mxPoint x="440" y="850" />
              <mxPoint x="390" y="800" />
            </Array>
          </mxGeometry>
        </mxCell>
        <mxCell id="1Qq6kkW1Uyhg24G6HAr7-71" value="" style="edgeStyle=orthogonalEdgeStyle;curved=1;rounded=0;orthogonalLoop=1;jettySize=auto;html=1;fontColor=#000000;strokeColor=#000000;strokeWidth=1;" edge="1" parent="1" source="1Qq6kkW1Uyhg24G6HAr7-67" target="1Qq6kkW1Uyhg24G6HAr7-70">
          <mxGeometry relative="1" as="geometry" />
        </mxCell>
        <mxCell id="1Qq6kkW1Uyhg24G6HAr7-67" value="hash hmget" style="rounded=0;whiteSpace=wrap;html=1;fontColor=#000000;strokeColor=#E6E6E6;strokeWidth=3;verticalAlign=middle;align=center;" vertex="1" parent="1">
          <mxGeometry x="-444" y="825" width="150" height="80" as="geometry" />
        </mxCell>
        <mxCell id="1Qq6kkW1Uyhg24G6HAr7-70" value="封装结果集" style="rounded=0;whiteSpace=wrap;html=1;fontColor=#000000;strokeColor=#E6E6E6;strokeWidth=3;verticalAlign=middle;align=center;" vertex="1" parent="1">
          <mxGeometry x="-489" y="945" width="240" height="80" as="geometry" />
        </mxCell>
        <mxCell id="1Qq6kkW1Uyhg24G6HAr7-75" value="" style="edgeStyle=orthogonalEdgeStyle;curved=1;rounded=0;orthogonalLoop=1;jettySize=auto;html=1;fontColor=#000000;strokeColor=#000000;strokeWidth=1;" edge="1" parent="1" source="1Qq6kkW1Uyhg24G6HAr7-72" target="1Qq6kkW1Uyhg24G6HAr7-61">
          <mxGeometry relative="1" as="geometry" />
        </mxCell>
        <mxCell id="1Qq6kkW1Uyhg24G6HAr7-72" value="根据入参判定是用哪个zset" style="rounded=1;whiteSpace=wrap;html=1;fontColor=#000000;strokeColor=#E6E6E6;strokeWidth=3;align=center;verticalAlign=middle;" vertex="1" parent="1">
          <mxGeometry x="-430" y="490" width="150" height="70" as="geometry" />
        </mxCell>
        <mxCell id="1Qq6kkW1Uyhg24G6HAr7-74" value="" style="edgeStyle=orthogonalEdgeStyle;curved=1;rounded=0;orthogonalLoop=1;jettySize=auto;html=1;fontColor=#000000;strokeColor=#000000;strokeWidth=1;" edge="1" parent="1" source="1Qq6kkW1Uyhg24G6HAr7-73" target="1Qq6kkW1Uyhg24G6HAr7-72">
          <mxGeometry relative="1" as="geometry" />
        </mxCell>
        <mxCell id="1Qq6kkW1Uyhg24G6HAr7-73" value="Actor" style="shape=umlActor;verticalLabelPosition=bottom;verticalAlign=top;html=1;outlineConnect=0;fontColor=#000000;strokeColor=#E6E6E6;strokeWidth=3;" vertex="1" parent="1">
          <mxGeometry x="-370" y="360" width="30" height="60" as="geometry" />
        </mxCell>
      </root>
    </mxGraphModel>
  </diagram>
</mxfile>
